<?xml version="1.0" encoding="UTF-8" standalone="no"?>
<!-- Created with Inkscape (http://www.inkscape.org/) -->

<svg
   width="331"
   height="25"
   viewBox="0 0 331 25"
   version="1.1"
   id="svg5"
   inkscape:version="1.2 (dc2aedaf03, 2022-05-15)"
   sodipodi:docname="logo.svg"
   xmlns:inkscape="http://www.inkscape.org/namespaces/inkscape"
   xmlns:sodipodi="http://sodipodi.sourceforge.net/DTD/sodipodi-0.dtd"
   xmlns="http://www.w3.org/2000/svg"
   xmlns:svg="http://www.w3.org/2000/svg">
  <sodipodi:namedview
     id="namedview7"
     pagecolor="#ffffff"
     bordercolor="#000000"
     borderopacity="0.25"
     inkscape:showpageshadow="2"
     inkscape:pageopacity="0.0"
     inkscape:pagecheckerboard="true"
     inkscape:deskcolor="#d1d1d1"
     inkscape:document-units="px"
     showgrid="true"
     inkscape:zoom="2.1745121"
     inkscape:cx="142.33078"
     inkscape:cy="-0.45987328"
     inkscape:window-width="1920"
     inkscape:window-height="1017"
     inkscape:window-x="-8"
     inkscape:window-y="-8"
     inkscape:window-maximized="1"
     inkscape:current-layer="layer1">
    <inkscape:grid
       type="xygrid"
       id="grid140"
       empspacing="4"
       originx="0"
       originy="0" />
  </sodipodi:namedview>
  <defs
     id="defs2" />
  <g
     inkscape:label="Layer 1"
     inkscape:groupmode="layer"
     id="layer1">
    <g
       aria-label="Greenfield Valuations"
       id="text1704"
       style="font-size:32px;line-height:0.8;font-family:'Fragment Mono';-inkscape-font-specification:'Fragment Mono';text-align:end;text-anchor:end;fill:#e2dbe3;stroke-width:2;stroke-linecap:round;stroke-linejoin:round">
      <path
         d="m 10.15604,24.999999 c 3.232,0 5.696,-2.176 6.112,-3.584 h 0.224 l 1.952,3.2 h 1.76 v -9.152 h 1.632 v -2.112 h -9.952 v 2.112 h 3.2 v 3.008 c 0,2.272 -1.344,3.968 -4.352,3.968 -3.04,0 -4.832,-2.048 -4.832,-5.888 v -6.112 c 0,-4.1599998 1.92,-6.1119998 5.76,-6.1119998 3.04,0 4.352,1.44 4.352,3.648 v 1.408 h 3.712 v -7.104 h -3.712 v 1.856 h -0.192 c -0.544,-1.024 -2.272,-2.24 -5.216,-2.24 -5.728,0 -10.39999998,4.064 -10.39999998,11.5839998 0,7.136 4.12799998,11.52 9.95199998,11.52 z"
         style="font-weight:bold;font-family:'IBM Plex Serif';-inkscape-font-specification:'IBM Plex Serif Bold';text-align:start;text-anchor:start"
         id="path4386" />
      <path
         d="m 24.524028,24.615999 h 9.344 v -2.112 h -2.56 v -9.472 c 0,-1.376 1.376,-3.0719998 2.72,-3.0719998 0.128,0 0.192,0 0.288,0.032 l 0.032,0.1599998 c -0.288,0.128 -0.544,0.608 -0.544,1.12 0,1.152 0.832,2.112 2.368,2.112 1.632,0 2.56,-1.056 2.56,-2.752 0,-1.9519998 -1.28,-3.1679998 -3.36,-3.1679998 -2.112,0 -3.456,1.408 -4.032,3.1679998 h -0.128 V 7.4639992 l -6.688,1.376 v 1.8239998 l 1.92,0.416 v 11.424 h -1.92 z"
         style="font-weight:bold;font-family:'IBM Plex Serif';-inkscape-font-specification:'IBM Plex Serif Bold';text-align:start;text-anchor:start"
         id="path4388" />
      <path
         d="m 48.524029,24.999999 c 4.224,0 6.368,-2.624 7.104,-4.736 l -1.76,-1.056 c -0.576,1.472 -2.016,2.688 -4.288,2.688 -2.464,0 -4.096,-1.472 -4.096,-4.32 v -1.28 h 10.528 v -1.088 c 0,-4.736 -3.008,-7.7439998 -7.776,-7.7439998 -4.768,0 -7.904,3.3279998 -7.904,8.7359998 0,5.12 2.944,8.8 8.192,8.8 z m -3.04,-11.168 c 0,-3.072 1.056,-4.1599998 2.752,-4.1599998 1.696,0 2.752,1.0879998 2.752,4.1599998 v 0.448 h -5.504 z"
         style="font-weight:bold;font-family:'IBM Plex Serif';-inkscape-font-specification:'IBM Plex Serif Bold';text-align:start;text-anchor:start"
         id="path4390" />
      <path
         d="m 66.636028,24.999999 c 4.224,0 6.368,-2.624 7.104,-4.736 l -1.76,-1.056 c -0.576,1.472 -2.016,2.688 -4.288,2.688 -2.464,0 -4.096,-1.472 -4.096,-4.32 v -1.28 h 10.528 v -1.088 c 0,-4.736 -3.008,-7.7439998 -7.776,-7.7439998 -4.768,0 -7.904,3.3279998 -7.904,8.7359998 0,5.12 2.944,8.8 8.192,8.8 z m -3.04,-11.168 c 0,-3.072 1.056,-4.1599998 2.752,-4.1599998 1.696,0 2.752,1.0879998 2.752,4.1599998 v 0.448 h -5.504 z"
         style="font-weight:bold;font-family:'IBM Plex Serif';-inkscape-font-specification:'IBM Plex Serif Bold';text-align:start;text-anchor:start"
         id="path4392" />
      <path
         d="m 76.524028,24.615999 h 8.544 v -2.112 h -1.76 v -9.312 c 0,-1.76 1.504,-2.496 2.976,-2.496 1.856,0 2.592,0.896 2.592,3.136 v 8.672 h -1.76 v 2.112 h 8.544 v -2.112 h -1.92 v -8.832 c 0,-4.1279998 -1.504,-6.2079998 -5.6,-6.2079998 -2.688,0 -4.16,1.472 -4.768,3.1679998 h -0.16 V 7.4639992 l -6.688,1.376 v 1.8239998 l 1.92,0.416 v 11.424 h -1.92 z"
         style="font-weight:bold;font-family:'IBM Plex Serif';-inkscape-font-specification:'IBM Plex Serif Bold';text-align:start;text-anchor:start"
         id="path4394" />
      <path
         d="m 97.708049,24.615999 h 8.576001 v -2.112 h -1.792 v -12.416 h 5.536 v 12.416 h -1.792 v 2.112 h 8.576 v -2.112 h -1.92 V 7.4639992 l -4.128,0.384 h -6.272 v -0.576 c 0,-3.616 1.056,-5.184 3.872,-5.184 0.608,0 1.152,0.064 1.632,0.128 v 0.224 c -0.32,0.096 -0.832,0.576 -0.832,1.568 0,1.216 0.8,2.144 2.336,2.144 1.504,0 2.4,-0.96 2.4,-2.368 0,-2.208 -2.048,-3.48799998 -6.144,-3.48799998 -4.864,0 -8.128001,2.55999998 -8.128001,7.00799998 v 0.544 h -1.92 v 2.2399998 h 1.92 v 12.416 h -1.92 z"
         style="font-weight:bold;font-family:'IBM Plex Serif';-inkscape-font-specification:'IBM Plex Serif Bold';text-align:start;text-anchor:start"
         id="path4396" />
      <path
         d="m 127.05204,24.999999 c 4.224,0 6.368,-2.624 7.104,-4.736 l -1.76,-1.056 c -0.576,1.472 -2.016,2.688 -4.288,2.688 -2.464,0 -4.096,-1.472 -4.096,-4.32 v -1.28 h 10.528 v -1.088 c 0,-4.736 -3.008,-7.7439998 -7.776,-7.7439998 -4.768,0 -7.904,3.3279998 -7.904,8.7359998 0,5.12 2.944,8.8 8.192,8.8 z m -3.04,-11.168 c 0,-3.072 1.056,-4.1599998 2.752,-4.1599998 1.696,0 2.752,1.0879998 2.752,4.1599998 v 0.448 h -5.504 z"
         style="font-weight:bold;font-family:'IBM Plex Serif';-inkscape-font-specification:'IBM Plex Serif Bold';text-align:start;text-anchor:start"
         id="path4398" />
      <path
         d="m 136.62004,24.615999 h 8.704 v -2.112 h -1.92 V 0.29599922 l -6.784,1.37599998 v 1.824 l 1.92,0.416 V 22.503999 h -1.92 z"
         style="font-weight:bold;font-family:'IBM Plex Serif';-inkscape-font-specification:'IBM Plex Serif Bold';text-align:start;text-anchor:start"
         id="path4400" />
      <path
         d="m 154.18805,24.999999 c 2.304,0 3.872,-1.376 4.448,-2.88 h 0.16 v 2.88 l 6.784,-1.376 v -1.824 l -1.92,-0.416 V 0.29599922 l -6.784,1.37599998 v 1.824 l 1.92,0.416 v 6.3679998 h -0.16 c -0.608,-1.4719998 -2.048,-2.8159998 -4.448,-2.8159998 -4.096,0 -6.656,3.4879998 -6.656,8.7679998 0,5.28 2.56,8.768 6.656,8.768 z m 1.632,-2.944 c -1.76,0 -3.136,-1.28 -3.136,-3.648 v -4.384 c 0,-2.368 1.376,-3.648 3.136,-3.648 1.696,0 2.976,1.184 2.976,2.944 v 5.792 c 0,1.76 -1.28,2.944 -2.976,2.944 z"
         style="font-weight:bold;font-family:'IBM Plex Serif';-inkscape-font-specification:'IBM Plex Serif Bold';text-align:start;text-anchor:start"
         id="path4402" />
      <path
         d="m 183.08406,24.615999 h 2.752 l 6.88,-20.8639998 h 1.696 v -1.472 h -6.496 v 1.472 h 2.88 l -3.136,9.8879998 -2.592,8.224 h -0.128 l -2.528,-8.192 -3.296,-9.9199998 h 2.88 v -1.472 h -7.488 v 1.472 h 1.696 z"
         style="font-family:'IBM Plex Serif';-inkscape-font-specification:'IBM Plex Serif';text-align:start;text-anchor:start"
         id="path4404" />
      <path
         d="m 199.50003,24.999999 c 2.944,0 4.224,-1.376 4.832,-2.816 h 0.16 v 0.224 c 0,1.568 0.928,2.592 2.592,2.592 0.96,0 1.792,-0.288 2.272,-0.64 v -1.12 h -2.4 v -10.4 c 0,-3.2319998 -2.048,-5.1199998 -5.504,-5.1199998 -3.84,0 -6.08,1.792 -6.08,3.6479998 0,1.216 0.736,1.856 1.76,1.856 1.056,0 1.76,-0.64 1.76,-1.76 0,-0.928 -0.544,-1.408 -1.024,-1.6639998 v -0.064 c 0.576,-0.352 1.6,-0.544 2.688,-0.544 2.496,0 3.776,1.4399998 3.776,4.0319998 v 2.432 h -2.368 c -5.408,0 -7.36,1.696 -7.36,4.864 0,2.752 1.856,4.48 4.896,4.48 z m 1.12,-1.76 c -1.984,0 -3.168,-0.864 -3.168,-2.496 v -0.672 c 0,-2.016 1.12,-3.136 4.8,-3.136 h 2.08 v 3.104 c 0,2.144 -1.664,3.2 -3.712,3.2 z"
         style="font-family:'IBM Plex Serif';-inkscape-font-specification:'IBM Plex Serif';text-align:start;text-anchor:start"
         id="path4406" />
      <path
         d="m 211.59601,24.615999 h 7.36 v -1.472 h -2.368 V 0.29599922 l -4.992,0.92799998 v 1.12 l 2.368,0.416 V 23.143999 h -2.368 z"
         style="font-family:'IBM Plex Serif';-inkscape-font-specification:'IBM Plex Serif';text-align:start;text-anchor:start"
         id="path4408" />
      <path
         d="m 228.97199,24.999999 c 2.592,0 4.224,-1.568 4.736,-2.88 h 0.128 v 2.88 l 4.928,-0.96 v -1.088 l -2.368,-0.416 V 7.7199992 l -4.992,0.96 v 1.088 l 2.368,0.4159998 v 9.728 c 0,2.208 -1.984,3.264 -3.872,3.264 -2.624,0 -3.872,-1.504 -3.872,-4.64 V 7.7199992 l -4.992,0.96 v 1.088 l 2.368,0.4159998 v 8.576 c 0,4.16 1.6,6.24 5.568,6.24 z"
         style="font-family:'IBM Plex Serif';-inkscape-font-specification:'IBM Plex Serif';text-align:start;text-anchor:start"
         id="path4410" />
      <path
         d="m 246.37997,24.999999 c 2.944,0 4.224,-1.376 4.832,-2.816 h 0.16 v 0.224 c 0,1.568 0.928,2.592 2.592,2.592 0.96,0 1.792,-0.288 2.272,-0.64 v -1.12 h -2.4 v -10.4 c 0,-3.2319998 -2.048,-5.1199998 -5.504,-5.1199998 -3.84,0 -6.08,1.792 -6.08,3.6479998 0,1.216 0.736,1.856 1.76,1.856 1.056,0 1.76,-0.64 1.76,-1.76 0,-0.928 -0.544,-1.408 -1.024,-1.6639998 v -0.064 c 0.576,-0.352 1.6,-0.544 2.688,-0.544 2.496,0 3.776,1.4399998 3.776,4.0319998 v 2.432 h -2.368 c -5.408,0 -7.36,1.696 -7.36,4.864 0,2.752 1.856,4.48 4.896,4.48 z m 1.12,-1.76 c -1.984,0 -3.168,-0.864 -3.168,-2.496 v -0.672 c 0,-2.016 1.12,-3.136 4.8,-3.136 h 2.08 v 3.104 c 0,2.144 -1.664,3.2 -3.712,3.2 z"
         style="font-family:'IBM Plex Serif';-inkscape-font-specification:'IBM Plex Serif';text-align:start;text-anchor:start"
         id="path4412" />
      <path
         d="m 263.49995,24.807999 c 1.472,0 3.168,-0.32 3.904,-0.704 v -1.056 h -4.256 V 9.6719992 h 4.256 v -1.568 h -4.256 v -4.288 h -1.44 l -0.736,2.848 c -0.256,0.96 -0.512,1.44 -2.272,1.44 h -0.288 v 1.568 h 2.112 V 21.767999 c 0,2.208 0.704,3.04 2.976,3.04 z"
         style="font-family:'IBM Plex Serif';-inkscape-font-specification:'IBM Plex Serif';text-align:start;text-anchor:start"
         id="path4414" />
      <path
         d="m 273.61197,4.2959992 c 1.088,0 1.728,-0.768 1.728,-1.696 v -0.16 c 0,-0.928 -0.64,-1.69599998 -1.728,-1.69599998 -1.088,0 -1.696,0.76799998 -1.696,1.69599998 v 0.16 c 0,0.928 0.608,1.696 1.696,1.696 z m -3.68,20.3199998 h 7.36 v -1.472 h -2.368 V 7.7199992 l -4.992,0.96 v 1.088 l 2.368,0.4159998 v 12.96 h -2.368 z"
         style="font-family:'IBM Plex Serif';-inkscape-font-specification:'IBM Plex Serif';text-align:start;text-anchor:start"
         id="path4416" />
      <path
         d="m 287.43599,23.431999 c -3.2,0 -4.608,-2.304 -4.608,-5.344 v -3.456 c 0,-3.04 1.408,-5.3439998 4.608,-5.3439998 3.2,0 4.608,2.3039998 4.608,5.3439998 v 3.456 c 0,3.04 -1.408,5.344 -4.608,5.344 z m 0,1.568 c 4.544,0 7.584,-3.392 7.584,-8.64 0,-5.248 -3.04,-8.6399998 -7.584,-8.6399998 -4.544,0 -7.584,3.3919998 -7.584,8.6399998 0,5.248 3.04,8.64 7.584,8.64 z"
         style="font-family:'IBM Plex Serif';-inkscape-font-specification:'IBM Plex Serif';text-align:start;text-anchor:start"
         id="path4418" />
      <path
         d="m 298.05996,24.615999 h 7.36 v -1.472 h -2.368 v -10.336 c 0,-2.208 2.016,-3.2639998 3.872,-3.2639998 2.624,0 3.872,1.5039998 3.872,4.6079998 v 8.992 h -2.368 v 1.472 h 7.36 v -1.472 h -2.368 v -9.216 c 0,-4.1279998 -1.6,-6.2079998 -5.568,-6.2079998 -2.592,0 -4.224,1.568 -4.736,2.8799998 h -0.128 V 7.7199992 l -4.928,0.96 v 1.088 l 2.368,0.4159998 v 12.96 h -2.368 z"
         style="font-family:'IBM Plex Serif';-inkscape-font-specification:'IBM Plex Serif';text-align:start;text-anchor:start"
         id="path4420" />
      <path
         d="m 324.97196,24.999999 c 3.648,0 5.824,-2.112 5.824,-4.832 0,-2.816 -1.664,-4.32 -4.928,-4.992 l -1.792,-0.384 c -1.696,-0.384 -2.752,-1.408 -2.752,-2.912 0,-1.76 1.28,-2.5919998 3.456,-2.5919998 2.432,0 3.584,0.8639998 3.584,2.5599998 v 1.216 h 1.92 V 8.1039992 h -1.92 v 1.344 h -0.128 c -0.416,-1.024 -1.792,-1.728 -3.808,-1.728 -3.36,0 -5.536,1.76 -5.536,4.6399998 0,2.784 1.632,4.384 4.768,5.056 l 1.92,0.416 c 1.76,0.384 2.72,1.376 2.72,2.848 0,1.92 -1.408,2.752 -3.84,2.752 -2.624,0 -3.712,-1.28 -3.712,-3.104 v -0.672 h -1.92 v 4.96 h 1.92 v -1.632 h 0.128 c 0.48,1.024 2.08,2.016 4.096,2.016 z"
         style="font-family:'IBM Plex Serif';-inkscape-font-specification:'IBM Plex Serif';text-align:start;text-anchor:start"
         id="path4422" />
    </g>
  </g>
</svg>
